<svg width="26" height="26" viewBox="0 0 36 36" fill="#fc5b2b" xmlns="http://www.w3.org/2000/svg">
				<path d="M35.7725 5.23598C35.5754 4.98967 35.277 4.8463 34.9616 4.8463H7.32319L6.55031 1.49732C6.44154 1.02616 6.02198 0.692383 5.53844 0.692383H1.03845C0.464977 0.692383 0 1.15736 0 1.7309C0 2.30444 0.464977 2.76934 1.03845 2.76934H4.71234L9.9585 25.5028C10.0672 25.974 10.4868 26.3078 10.9704 26.3078H31.7769C32.3504 26.3078 32.8153 25.8428 32.8153 25.2693C32.8153 24.6958 32.3504 24.2309 31.7769 24.2309H11.7965L10.9978 20.7693H31.8462C32.3319 20.7693 32.7528 20.4327 32.8594 19.9588L35.9747 6.1127C36.0439 5.80487 35.9696 5.48235 35.7725 5.23598ZM31.0154 18.6924H10.5185L7.80251 6.92319H33.6634L31.0154 18.6924Z"></path>
				<path d="M15.2306 27.6924C13.131 27.6924 11.4229 29.4005 11.4229 31.5001C11.4229 33.5997 13.131 35.3078 15.2306 35.3078C17.3301 35.3078 19.0383 33.5997 19.0383 31.5001C19.0383 29.4005 17.3302 27.6924 15.2306 27.6924ZM15.2306 33.2309C14.2762 33.2309 13.4998 32.4544 13.4998 31.5001C13.4998 30.5457 14.2762 29.7693 15.2306 29.7693C16.1849 29.7693 16.9613 30.5457 16.9613 31.5001C16.9613 32.4544 16.1849 33.2309 15.2306 33.2309Z"></path>
				<path d="M27.6925 27.6924C25.5929 27.6924 23.8848 29.4005 23.8848 31.5001C23.8848 33.5997 25.5929 35.3078 27.6925 35.3078C29.792 35.3078 31.5002 33.5997 31.5002 31.5001C31.5002 29.4005 29.7921 27.6924 27.6925 27.6924ZM27.6925 33.2309C26.7381 33.2309 25.9617 32.4545 25.9617 31.5002C25.9617 30.5458 26.7381 29.7694 27.6925 29.7694C28.6468 29.7694 29.4232 30.5458 29.4232 31.5002C29.4232 32.4545 28.6468 33.2309 27.6925 33.2309Z"></path>
			</svg>